<svg xmlns="http://www.w3.org/2000/svg" viewBox="0 0 64 64" width="64" height="64">
  <g fill="#336791">
    
    <path d="M45 15c7 2 11 9 11 17 0 7-3 13-8 16-2 1-4-1-3-3 0-1 1-1 2-2 4-3 5-7 5-11 0-7-3-12-9-14-2-1-1-4 2-3z"></path>
    
    <path d="M33 9c11 0 18 8 18 18 0 5-1 9-4 12l1 10c0 2-2 4-5 4-2 0-4-2-4-4l0-5c-2 1-4 1-6 0l0 5c0 2-2 4-5 4-2 0-4-2-4-4l0-8c-4-2-7-5-9-9-1 0-1 0-2-1 0 0-1-1-1-2l-1-7c0-3 2-5 5-5 1 0 2 0 3 1C16 18 23 10 33 9z"></path>
    
    <path d="M20 24c-2 0-3 1-3 3l0 14c0 4 3 7 7 7 4 0 7-3 7-7 0-2-2-3-3-3-1 0-2 1-2 3 0 1-1 2-2 2s-2-1-2-2l0-14c0-2-1-3-2-3z"></path>
  </g>
  <circle cx="32" cy="22" r="3" fill="#ffffff"></circle>
</svg>